# xmcd
#
# Track frame offsets: 
#        150
#        18816
#        36000
#        54910
#        72991
#        86421
#        104310
#        120982
#        135791
#        152756
#        174361
#        192894
#
# Disc length: 3000 seconds
#
# Revision: 0
# Processed by: cddbd v1.5.2PL0 Copyright (c) Steve Scherf et al.
# Submitted via: ExactAudioCopy v0.99pb5
#
DISCID=840bb60c
DTITLE=JW Jones - Belmont Boulevard
DYEAR=2014
DGENRE=Blues
TTITLE0=Love Times Ten
TTITLE1=Watch Your Step
TTITLE2=Blue Jean Jacket
TTITLE3=Coming After Me
TTITLE4=Don't Be Ashamed
TTITLE5=Thank You
TTITLE6=Magic West Side Boogie
TTITLE7=What Would Jimmie Do
TTITLE8=If It Feels This Good Tomorrow
TTITLE9=What's Inside Of You
TTITLE10=Never Worth It
TTITLE11=Cocaine Buy
EXTD=
EXTT0=
EXTT1=
EXTT2=
EXTT3=
EXTT4=
EXTT5=
EXTT6=
EXTT7=
EXTT8=
EXTT9=
EXTT10=
EXTT11=
PLAYORDER=
